<?xml version="1.0" standalone="no"?>
<!DOCTYPE svg PUBLIC "-//W3C//DTD SVG 20010904//EN"
 "http://www.w3.org/TR/2001/REC-SVG-20010904/DTD/svg10.dtd">
<svg version="1.0" xmlns="http://www.w3.org/2000/svg"
 width="700.000000pt" height="700.000000pt" viewBox="0 0 700.000000 700.000000"
 preserveAspectRatio="xMidYMid meet">
<metadata>
Created by potrace 1.11, written by Peter Selinger 2001-2013
</metadata>
<g transform="translate(0.000000,700.000000) scale(0.100000,-0.100000)"
fill="#000000" stroke="none">
<path d="M2290 6380 c-139 -47 -259 -150 -319 -273 -27 -55 -94 -239 -167
-457 -35 -108 -69 -171 -116 -218 -48 -49 -128 -90 -193 -99 -48 -6 -48 -7
-47 52 0 44 0 45 23 45 11 0 33 14 49 32 l29 31 1 327 c0 223 -3 336 -11 359
-23 65 -34 66 -495 66 -225 -1 -419 -5 -431 -9 -12 -4 -32 -20 -43 -37 -21
-28 -21 -40 -21 -356 0 -181 2 -335 4 -344 5 -26 29 -51 64 -66 30 -12 33 -17
33 -58 l0 -45 -72 -1 c-40 0 -82 -2 -93 -4 -11 -2 -36 -7 -55 -10 -19 -4 -57
-16 -85 -28 -170 -71 -296 -224 -334 -405 -8 -39 -10 -583 -9 -1950 l3 -1897
23 -65 c60 -166 191 -298 355 -354 l62 -21 3030 -3 c2964 -2 3032 -2 3106 17
180 45 323 176 388 354 l26 72 2 1900 c3 2118 8 1963 -67 2103 -67 124 -172
213 -310 262 -60 22 -83 24 -310 27 -276 4 -325 13 -402 70 -90 66 -102 89
-224 443 -71 208 -98 273 -137 329 -74 108 -203 195 -332 226 -50 12 -252 14
-1201 15 -788 0 -1150 -3 -1171 -11 -30 -10 -67 -64 -57 -81 3 -4 -28 -8 -68
-8 l-74 0 -12 33 c-20 54 -57 69 -169 65 -70 -2 -117 -10 -173 -28z"/>
</g>
</svg>
